<svg width="96" height="96" viewBox="0 0 96 96" fill="none" xmlns="http://www.w3.org/2000/svg">
<path d="M82.0182 19.9879C89.9939 27.9709 89.9939 40.914 82.0184 48.8971L49.6159 81.3303C48.7238 82.2232 47.2774 82.2232 46.3853 81.3303L13.9818 48.8969C6.00617 40.9139 6.00604 27.9708 13.9815 19.9876C21.9571 12.0044 34.8883 12.0041 42.8642 19.987L46.3852 23.511C47.2774 24.4039 48.7238 24.4039 49.6159 23.5109L53.135 19.9883C61.1107 12.0048 74.0423 12.0046 82.0182 19.9879Z" fill="#678D58"/>
<path d="M68.4109 36.6103C73.1963 41.4236 73.1964 49.2275 68.411 54.0409L48.9695 73.5962C48.4343 74.1346 47.5664 74.1346 47.0312 73.5962L27.5891 54.0408C22.8037 49.2275 22.8036 41.4236 27.5889 36.6102C32.3743 31.7968 40.133 31.7966 44.9185 36.6098L47.0311 38.7346C47.5664 39.2729 48.4343 39.2729 48.9695 38.7345L51.081 36.6106C55.8664 31.797 63.6254 31.7969 68.4109 36.6103Z" fill="#003636"/>
</svg>
